With: Nicolas Cage, Laura Dern and Willem Dafoe

Lula's psychopathic mother goes crazy at the thought of Lula being with Sailor, who just got free from jail. Ignoring Sailor's probation, they set out for California. However their mother hires a killer to hunt down Sailor. Unaware of this, the two enjoy their journey and themselves being together... until they witness a young woman dying after a car accident - a bad omen.

General:

Complete name                    : Wild At Heart\Wild At Heart.avi
Format                           : AVI
Format/Info                      : Audio Video Interleave
File size                        : 1.96 GiB
Duration                         : 1h 59mn
Overall bit rate                 : 2 338 Kbps

Video:

Format                           : MPEG-4 Visual
Format profile                   : Simple@L3
Format settings, BVOP            : No
Format settings, QPel            : No
Format settings, GMC             : No warppoints
Format settings, Matrix          : Default (H.263)
Codec ID                         : XVID
Codec ID/Hint                    : XviD
Duration                         : 1h 59mn
Bit rate                         : 1 879 Kbps
Width                            : 704 pixels
Height                           : 396 pixels
Display aspect ratio             : 16:9
Frame rate                       : 25.000 fps
Color space                      : YUV
Chroma subsampling               : 4:2:0
Bit depth                        : 8 bits
Scan type                        : Progressive
Bits/(Pixel*Frame)               : 0.270
Stream size                      : 1.57 GiB (80%)
Writing library                  : XviD 1.1.2 (UTC 2006-11-01)

Audio:

Format                           : AC-3
Format/Info                      : Audio Coding 3
Mode extension                   : CM (complete main)
Codec ID                         : 2000
Duration                         : 1h 59mn
Bit rate mode                    : Constant
Bit rate                         : 448 Kbps
Channel(s)                       : 6 channels
Channel positions                : Front: L C R, Side: L R, LFE
Sampling rate                    : 48.0 KHz
Bit depth                        : 16 bits
Stream size                      : 384 MiB (19%)
Alignment                        : Aligned on interleaves
Interleave, duration             : 32 ms (0.80 video frame)